# xmcd
#
# Track frame offsets: 
#        150
#        19025
#        36420
#        47470
#        61385
#        84567
#        105660
#        122140
#        138150
#        159892
#        170497
#        180056
#        200161
#        209244
#        220863
#
# Disc length: 3181 seconds
#
# Revision: 0
# Processed by: cddbd v1.5.2PL0 Copyright (c) Steve Scherf et al.
# Submitted via: ExactAudioCopyFreeDBPlugin 1.0
#
DISCID=cf0c6b0f
DTITLE=Thanatos - Emerging From The Netherworlds
DYEAR=1989
DGENRE=Death Metal
TTITLE0=Dawn Of The Dead
TTITLE1=Outward Of The Inward
TTITLE2=Bodily Dismemberment
TTITLE3=Internal Deceit
TTITLE4=The Day Before Tomorrow
TTITLE5=War
TTITLE6=Rebirth
TTITLE7=Progressive Destructor
TTITLE8=Impostors Infiltration
TTITLE9=Omnicoitor - Dolor Satanae
TTITLE10=The Meaning Of Life
TTITLE11=War
TTITLE12=The Meaning Of Life
TTITLE13=Bodily Dismemberment
TTITLE14=A-Thanasia
EXTD=
EXTT0=
EXTT1=
EXTT2=
EXTT3=
EXTT4=
EXTT5=
EXTT6=
EXTT7=
EXTT8=
EXTT9=
EXTT10=
EXTT11=
EXTT12=
EXTT13=
EXTT14=
PLAYORDER=
